<?xml version="1.0" standalone="no"?><!DOCTYPE svg PUBLIC "-//W3C//DTD SVG 1.1//EN" "http://www.w3.org/Graphics/SVG/1.1/DTD/svg11.dtd"><svg t="1772214020527" class="icon" viewBox="0 0 1118 1024" version="1.1" xmlns="http://www.w3.org/2000/svg" p-id="2970" xmlns:xlink="http://www.w3.org/1999/xlink" width="17.46875" height="16"><path d="M628.14435554 916.18417777h467.89973333v81.92H628.14435554z" fill="#026ED0" p-id="2971"></path><path d="M939.03075554 825.7991111l-126.976-123.01653333-103.49226667 99.66933333-56.9344-58.9824 160.5632-154.69226666 126.42986667 122.60693333 121.51466667-119.05706667 57.344 58.5728-178.44906667 174.8992z" fill="#E04343" p-id="2972"></path><path d="M524.37902221 478.8679111H179.76888887a122.88 122.88 0 0 1-122.88-122.88V134.25777777a122.88 122.88 0 0 1 122.88-122.88h221.73013334a122.88 122.88 0 0 1 122.88 122.88zM179.76888887 93.29777777a40.96 40.96 0 0 0-40.96 40.96v221.73013333a40.96 40.96 0 0 0 40.96 40.96h262.69013334V134.25777777a40.96 40.96 0 0 0-40.96-40.96zM401.49902221 1011.07484444H179.76888887a122.88 122.88 0 0 1-122.88-122.88V666.4647111a122.88 122.88 0 0 1 122.88-122.88h344.61013334v344.61013334a122.88 122.88 0 0 1-122.88 122.88zM179.76888887 625.5047111a40.96 40.96 0 0 0-40.96 40.96v221.73013334a40.96 40.96 0 0 0 40.96 40.96h221.73013334a40.96 40.96 0 0 0 40.96-40.96V625.5047111zM942.03448887 478.8679111H597.01475554V134.25777777a122.88 122.88 0 0 1 122.88-122.88h222.13973333a122.88 122.88 0 0 1 122.88 122.88v221.73013333a122.88 122.88 0 0 1-122.88 122.88z m-263.09973333-81.92h263.09973333a40.96 40.96 0 0 0 40.96-40.96V134.25777777a40.96 40.96 0 0 0-40.96-40.96H719.89475554a40.96 40.96 0 0 0-40.96 40.96z" fill="#026ED0" p-id="2973"></path></svg>