<?xml version="1.0" standalone="no"?><!DOCTYPE svg PUBLIC "-//W3C//DTD SVG 1.1//EN" "http://www.w3.org/Graphics/SVG/1.1/DTD/svg11.dtd"><svg t="1772194159244" class="icon" viewBox="0 0 1024 1024" version="1.1" xmlns="http://www.w3.org/2000/svg" p-id="2835" xmlns:xlink="http://www.w3.org/1999/xlink" width="16" height="16"><path d="M512 992C246.90000031 992 32 777.09999969 32 512S246.90000031 32 512 32s480 214.90000031 480 480-214.90000031 480-480 480zM312.00000031 363.98v307.30000031c0 17.64 14.26000031 31.98 31.86 31.98h256.27999969c17.7 0 31.86-14.32000031 31.86-31.98V363.98c0-17.65999969-14.26000031-31.98-31.86-31.98H343.86000031c-17.7 0-31.86 14.32000031-31.86 31.98z m55.99999969 121.36000031h208.00000031v40.35999938H368v-40.35999938z m0-80.7h208.00000031v40.35999938H368v-40.35999938z m0 161.4h108v40.35999938h-108v-40.33999969z m136.00000031 19.71999938a19.86 19.86 0 0 1 39.67999969 0v0.94000031a19.86 19.86 0 0 1-39.67999969 0v-0.94000031z m151.99999969-180.39999938v288.72h37.66000031A18.46000031 18.46000031 0 0 0 711.99999969 675.60000031V423.86a18.43999969 18.43999969 0 0 0-18.33999938-18.48H656z" fill="#FF9326" p-id="2836"></path></svg>