<?xml version="1.0" standalone="no"?><!DOCTYPE svg PUBLIC "-//W3C//DTD SVG 1.1//EN" "http://www.w3.org/Graphics/SVG/1.1/DTD/svg11.dtd"><svg t="1758603114787" class="icon" viewBox="0 0 1024 1024" version="1.1" xmlns="http://www.w3.org/2000/svg" p-id="5006" xmlns:xlink="http://www.w3.org/1999/xlink" width="16" height="16"><path d="M300.62039381 673.44741603l48.26778397 48.26778397 113.17963207-41.61015922-119.83725796-119.83725681-41.61015808 113.17963206z" fill="#AFCD50" p-id="5007"></path><path d="M512 11.01368889c-276.2914543 0-499.32190493 223.03045063-499.32190493 499.32190492s223.03045063 499.32190493 499.32190493 499.32190493 499.32190493-223.03045063 499.32190493-499.32190493c0-274.62704811-223.03045063-499.32190493-499.32190493-499.32190492z m-24.96609507 694.0574481c-1.66440619 1.66440619-3.32881236 1.66440619-4.9932197 3.32881238l-229.68807538 83.2203173c-6.65762589 1.66440619-13.31525062 0-16.64406414-3.32881238-4.99321856-4.99321856-6.65762589-11.65084444-3.32881238-16.64406414l83.2203173-229.68807538c0-1.66440618 1.66440619-3.32881236 3.32881238-4.9932197L523.65084445 328.91530126c21.6372827 21.6372827 41.61015922 39.94575189 41.61015921 39.94575303l-161.44741603 161.44741604c-3.32881237 3.32881237-3.32881236 6.65762589-3.32881352 9.98643712 0 3.32881237 1.66440619 6.65762589 3.32881352 9.98643826 3.32881236 1.66440619 6.65762589 3.32881236 9.98643826 3.3288135 3.32881237 0 6.65762589-1.66440619 9.98643712-3.3288135l161.44741603-161.44741602 51.59659747 49.93219127-161.44741603 161.44741603c-4.99321856 4.99321856-4.99321856 13.31525063 0 18.3084692 1.66440619 1.66440619 6.65762589 3.32881236 9.98643826 3.32881237 3.32881237 0 6.65762589-1.66440619 9.98643825-3.32881237l161.4474149-161.44741604 39.94575304 39.94575304-209.7152 208.0507938z m289.60670492-289.60670492L711.72876173 480.37627904 541.95931477 310.60683207l64.91184697-64.9118481c23.30168889-23.30168889 61.58303459-23.30168887 83.2203173 0l84.88472463 84.88472348c24.96609507 23.30168889 24.96609507 61.58303459 1.66440618 84.88472462z" fill="#AFCD50" p-id="5008"></path></svg>