<?xml version="1.0" standalone="no"?><!DOCTYPE svg PUBLIC "-//W3C//DTD SVG 1.1//EN" "http://www.w3.org/Graphics/SVG/1.1/DTD/svg11.dtd"><svg t="1758603223389" class="icon" viewBox="0 0 1024 1024" version="1.1" xmlns="http://www.w3.org/2000/svg" p-id="5164" xmlns:xlink="http://www.w3.org/1999/xlink" width="16" height="16"><path d="M505.49418667 39.22929778c-264.49123556 0-478.90432 214.40284444-478.90432 478.88270223 0 264.48099556 214.41194667 478.88384 478.90432 478.88383999 264.49009778 0 478.90204444-214.40398222 478.90204444-478.88384-0.00113778-264.48099556-214.41194667-478.88270222-478.90204444-478.88270222z m-215.58613334 694.45859555c-21.10008889 0-38.20430222-17.10421333-38.20430222-38.20430222s17.10535111-38.20430222 38.20430222-38.20430221c21.10008889 0 38.20430222 17.10421333 38.20430223 38.20430221s-17.10535111 38.20430222-38.20430223 38.20430222z m0-176.82659555c-21.10008889 0-38.20430222-17.10421333-38.20430222-38.20430223s17.10535111-38.20430222 38.20430222-38.20430222c21.10008889 0 38.20430222 17.10421333 38.20430223 38.20430222s-17.10535111 38.20430222-38.20430223 38.20430223z m0-177.91886223c-21.10008889 0-38.20430222-17.10421333-38.20430222-38.20430222s17.10535111-38.20430222 38.20430222-38.20430222c21.10008889 0 38.20430222 17.10421333 38.20430223 38.20430222s-17.10535111 38.20430222-38.20430223 38.20430222z m438.39146667 354.74545778h-340.82133333c-17.11217778 0-30.98510222-17.10421333-30.98510223-38.20430222s13.87178667-38.20430222 30.98510223-38.20430221h340.82019555c17.11445333 0 30.98510222 17.10421333 30.98510222 38.20430221s-13.87064889 38.20430222-30.98396444 38.20430222z m0-176.82659555h-340.82133333c-17.11217778 0-30.98510222-17.10421333-30.98510223-38.20430223 0-21.09781333 13.87178667-38.20430222 30.98510223-38.20430222h340.82019555c17.11445333 0 30.98510222 17.10535111 30.98510222 38.20430222s-13.87064889 38.20430222-30.98396444 38.20430223z m0-177.91886223h-340.82133333c-17.11217778 0-30.98510222-17.10421333-30.98510223-38.20430222 0-21.09781333 13.87178667-38.20430222 30.98510223-38.20430222h340.82019555c17.11445333 0 30.98510222 17.10535111 30.98510222 38.20430222s-13.87064889 38.20430222-30.98396444 38.20430222z" fill="#faaf76" p-id="5165"></path></svg>