<?xml version="1.0" standalone="no"?><!DOCTYPE svg PUBLIC "-//W3C//DTD SVG 1.1//EN" "http://www.w3.org/Graphics/SVG/1.1/DTD/svg11.dtd"><svg t="1758603334776" class="icon" viewBox="0 0 1024 1024" version="1.1" xmlns="http://www.w3.org/2000/svg" p-id="5800" xmlns:xlink="http://www.w3.org/1999/xlink" width="16" height="16"><path d="M512 512m-480 0a480 480 0 1 0 960 0 480 480 0 1 0-960 0Z" fill="#36CFC9" p-id="5801"></path><path d="M757.82 378.5a267 267 0 0 0-57.3-85.44 265.59 265.59 0 0 0-188.52-78.18h-1.2a266.25 266.25 0 0 0-244.95 164.1 269.22 269.22 0 0 0 8.16 223.47v90.63a27.42 27.42 0 0 0 27.36 27.42h90.51a267 267 0 0 0 118.95 28.62h1.26a267.36 267.36 0 0 0 245.73-370.62z m-364.86 132a28.62 28.62 0 1 1 28.56-28.62 28.62 28.62 0 0 1-28.53 28.74z m119.01 0a28.62 28.62 0 1 1 28.56-28.62 28.62 28.62 0 0 1-28.53 28.74z m119.01 0a28.62 28.62 0 1 1 28.65-28.62 28.62 28.62 0 0 1-28.62 28.74z" fill="#FFFFFF" p-id="5802"></path></svg>