<?xml version="1.0" standalone="no"?><!DOCTYPE svg PUBLIC "-//W3C//DTD SVG 1.1//EN" "http://www.w3.org/Graphics/SVG/1.1/DTD/svg11.dtd"><svg t="1758603287274" class="icon" viewBox="0 0 1024 1024" version="1.1" xmlns="http://www.w3.org/2000/svg" p-id="5478" xmlns:xlink="http://www.w3.org/1999/xlink" width="16" height="16"><path d="M512 34.13333333a477.86666667 477.86666667 0 1 0 0 955.73333334A477.86666667 477.86666667 0 0 0 512 34.13333333z m188.27946667 624.77653334l-30.5152 41.5744a8.53333333 8.53333333 0 0 1-11.94666667 1.8432L481.41653333 573.57653333a8.46506667 8.46506667 0 0 1-3.54986666-6.89493333V273.06666667c0-4.7104 3.82293333-8.53333333 8.53333333-8.53333334h51.33653333c4.64213333 0 8.53333333 3.82293333 8.53333334 8.53333334v263.9872l152.09813333 109.9776c3.82293333 2.73066667 4.64213333 7.9872 1.91146667 11.8784z" fill="#3385FF" p-id="5479"></path></svg>