<?xml version="1.0" standalone="no"?><!DOCTYPE svg PUBLIC "-//W3C//DTD SVG 1.1//EN" "http://www.w3.org/Graphics/SVG/1.1/DTD/svg11.dtd"><svg t="1772213985461" class="icon" viewBox="0 0 1024 1024" version="1.1" xmlns="http://www.w3.org/2000/svg" p-id="2652" xmlns:xlink="http://www.w3.org/1999/xlink" width="16" height="16"><path d="M145.85330586 96.49940557L465.09780781 62.34999365a55.54904326 55.54904326 0 0 1 45.19922168 15.92472568l435.41750127 435.44250088a55.54904326 55.54904326 0 0 1 0 78.54864786L592.24561807 945.73477988a55.54904326 55.54904326 0 0 1-78.54864698 1e-8L78.25447021 510.26728028a55.54904326 55.54904326 0 0 1-15.92472568-45.17422208L96.50415606 145.87355586A55.54904326 55.54904326 0 0 1 145.85330586 96.49940557z m325.1444001 21.02463808L151.77820362 151.77345401l-34.24940948 319.24450195L552.99629375 906.41045762 906.49020605 552.99154414 470.99770596 117.52404365z" fill="#009BDA" p-id="2653"></path><path d="M112.00388925 516.96716416l22.52461202-373.74356338L472.99767207 86.99956982 586.99570888 174.2480668 169.00290722 611.99052823 112.00388925 516.96716416z m189.99672716-203.4464959a87.17349903 87.17349903 0 0 0 20.87464043-81.5485957c-7.4748709-29.12449834-29.19949717-51.87410683-56.99901798-59.69897139a78.14865411 78.14865411 0 0 0-77.87365839 21.84962344 87.17349903 87.17349903 0 0 0-20.87464131 81.5485957c7.4748709 29.12449834 29.19949717 51.89910644 56.99901884 59.69897139 27.82452041 7.79986582 57.49901016-0.52499092 77.87365841-21.84962344z" fill="#009BDA" p-id="2654"></path><path d="M370.92442959 545.91666612c11.89979473-11.89979473 23.82458994-11.89979473 35.72438467 0l71.42376972 71.42376972c11.89979473 11.89979473 11.89979473 23.82458994 0 35.72438466-11.89979473 11.89979473-23.82458994 11.89979473-35.72438466 0l-71.42376973-71.42376972c-11.89979473-11.89979473-11.89979473-23.82458994 0-35.72438466zM547.24639326 372.24465664c13.62476513-13.64976474 27.24953028-13.64976474 40.87429629 0l163.64718105 163.62218232c13.62476513 13.62476513 13.62476513 27.24953028 0 40.89929591-13.64976474 13.62476513-27.27452989 13.62476513-40.89929589 0l-163.64718106-163.64718194c-13.62476513-13.62476513-13.62476513-27.24953028 0-40.8992959zM447.24811484 447.24336523c13.62476513-13.64976474 27.24953028-13.64976474 40.8742963 0l163.64718193 163.62218233c13.62476513 13.62476513 13.62476513 27.24953028 0 40.89929502-13.64976474 13.62476513-27.27452989 13.62476513-40.8992959 0l-163.64718105-163.64718106c-13.62476513-13.62476513-13.62476513-27.24953028 0-40.89929589z" fill="#F47939" p-id="2655"></path></svg>