<?xml version="1.0" standalone="no"?><!DOCTYPE svg PUBLIC "-//W3C//DTD SVG 1.1//EN" "http://www.w3.org/Graphics/SVG/1.1/DTD/svg11.dtd"><svg t="1758603323714" class="icon" viewBox="0 0 1024 1024" version="1.1" xmlns="http://www.w3.org/2000/svg" p-id="5635" xmlns:xlink="http://www.w3.org/1999/xlink" width="16" height="16"><path d="M517.18462578 512.99032178m-491.89865245 0a491.89865245 491.89865245 0 1 0 983.79730489 0 491.89865245 491.89865245 0 1 0-983.79730489 0Z" fill="#ED5DF9" p-id="5636"></path><path d="M261.21557333 405.86080711c-96.76026311 0-182.51047822 47.06941155-235.63832888 119.537664 5.18462578 207.90931911 139.22759111 383.778816 325.3498311 450.59640889 117.440512-37.86524445 202.43342222-147.96572445 202.43342223-278.04740267 0-161.24768711-130.78072889-292.08667022-292.14492445-292.08667022z" fill="#F27DFF" p-id="5637"></path><path d="M330.53809778 478.969856l-57.78818845 225.03606045c-10.25274311 39.90414222 13.80625067 80.50733511 53.65213867 90.76007822l273.79484445 70.31284622c39.845888 10.25274311 80.50733511-13.80625067 90.76007822-53.65213867l89.47848533-348.41850311c-80.85686045 3.02921955-281.71741867 10.48576-449.89735822 15.96165689z" fill="#F8CAFF" p-id="5638"></path><path d="M791.85328355 444.42510222l-34.3699911-165.50024533a74.51880107 74.51880107 0 0 0-57.78818845-57.78818844l-165.50024533-34.36999112c-24.58328178-5.12637155-50.09863111 2.50493155-67.86616889 20.27246934L184.08698311 489.22259911c-29.12711111 29.12711111-29.12711111 76.31303111 0 105.44014222l199.87023644 199.87023645c29.12711111 29.12711111 76.31303111 29.12711111 105.44014223 0l282.18345244-282.18345245c17.76753778-17.825792 25.39884089-43.34114133 20.27246933-67.92442311z" fill="#FFFFFF" p-id="5639"></path><path d="M627.63463111 350.92707555m-52.4288 0a52.4288 52.4288 0 1 0 104.8576 0 52.4288 52.4288 0 1 0-104.8576 0Z" fill="#F27DFF" p-id="5640"></path></svg>