<?xml version="1.0" standalone="no"?><!DOCTYPE svg PUBLIC "-//W3C//DTD SVG 1.1//EN" "http://www.w3.org/Graphics/SVG/1.1/DTD/svg11.dtd"><svg t="1758603266987" class="icon" viewBox="0 0 1024 1024" version="1.1" xmlns="http://www.w3.org/2000/svg" p-id="5321" xmlns:xlink="http://www.w3.org/1999/xlink" width="16" height="16"><path d="M512 35.2c263.32906667 0 476.8 213.47093333 476.8 476.8S775.32906667 988.8 512 988.8 35.2 775.32906667 35.2 512 248.67093333 35.2 512 35.2z m0 317.8624C343.97546667 353.0624 257.7024 512 257.7024 512 303.83146667 610.38293333 403.35253333 672.58346667 512 670.9376c171.3344 0 254.28373333-158.32533333 254.28373333-158.32533333S682.68053333 353.0624 512 353.0624z m0.38186667 258.2624c-61.43893333 0-105.8496-43.45706667-105.8496-99.3376s44.41066667-99.3376 105.8496-99.3376 105.87733333 43.4976 105.87733333 99.35146667-44.41066667 99.3376-105.8496 99.3376l-0.02773333-0.01386667z m0-158.95253333c-32.91733333 2.09173333-57.9072 30.47146667-55.81546667 63.38986666 2.09173333 32.91733333 30.47253333 57.90613333 63.38986667 55.81546667 31.44-1.99786667 55.92213333-28.0736 55.93493333-59.5776-1.47306667-33.81866667-29.66506667-60.2816-63.50933333-59.6128v-0.01493333z" fill="#FF7163" p-id="5322"></path></svg>